<svg width="28" height="28" viewBox="0 0 28 28" fill="none" xmlns="http://www.w3.org/2000/svg">
<path d="M14 25.6667C20.4434 25.6667 25.6667 20.4434 25.6667 14C25.6667 7.55672 20.4434 2.33337 14 2.33337C7.55672 2.33337 2.33337 7.55672 2.33337 14C2.33337 20.4434 7.55672 25.6667 14 25.6667Z" stroke="#009E60" stroke-width="2.33333" stroke-linecap="round" stroke-linejoin="round"/>
<path d="M14 21C17.866 21 21 17.866 21 14C21 10.134 17.866 7 14 7C10.134 7 7 10.134 7 14C7 17.866 10.134 21 14 21Z" stroke="#009E60" stroke-width="2.33333" stroke-linecap="round" stroke-linejoin="round"/>
<path d="M14 16.3333C15.2886 16.3333 16.3333 15.2886 16.3333 14C16.3333 12.7113 15.2886 11.6666 14 11.6666C12.7113 11.6666 11.6666 12.7113 11.6666 14C11.6666 15.2886 12.7113 16.3333 14 16.3333Z" stroke="#009E60" stroke-width="2.33333" stroke-linecap="round" stroke-linejoin="round"/>
</svg>
