<svg width="28" height="28" viewBox="0 0 28 28" fill="none" xmlns="http://www.w3.org/2000/svg">
<path d="M24.99 12.7424C25.1989 12.6502 25.3761 12.4988 25.4998 12.307C25.6234 12.1151 25.6881 11.8912 25.6857 11.6629C25.6834 11.4346 25.6141 11.2121 25.4865 11.0228C25.3589 10.8335 25.1786 10.6858 24.9678 10.598L14.9683 6.04336C14.6644 5.9047 14.3341 5.83295 14 5.83295C13.6659 5.83295 13.3357 5.9047 13.0317 6.04336L3.03334 10.5934C2.82564 10.6843 2.64894 10.8339 2.52487 11.0236C2.40079 11.2134 2.33472 11.4353 2.33472 11.662C2.33472 11.8888 2.40079 12.1106 2.52487 12.3004C2.64894 12.4902 2.82564 12.6397 3.03334 12.7307L13.0317 17.29C13.3357 17.4287 13.6659 17.5004 14 17.5004C14.3341 17.5004 14.6644 17.4287 14.9683 17.29L24.99 12.7424Z" stroke="#009E60" stroke-width="2.33333" stroke-linecap="round" stroke-linejoin="round"/>
<path d="M25.6666 11.6667V18.6667" stroke="#009E60" stroke-width="2.33333" stroke-linecap="round" stroke-linejoin="round"/>
<path d="M7 14.5833V18.6666C7 19.5949 7.7375 20.4851 9.05025 21.1415C10.363 21.7979 12.1435 22.1666 14 22.1666C15.8565 22.1666 17.637 21.7979 18.9497 21.1415C20.2625 20.4851 21 19.5949 21 18.6666V14.5833" stroke="#009E60" stroke-width="2.33333" stroke-linecap="round" stroke-linejoin="round"/>
</svg>
