<svg width="40" height="40" viewBox="0 0 40 40" fill="none" xmlns="http://www.w3.org/2000/svg">
<path d="M0 12C0 5.37258 5.37258 0 12 0H28C34.6274 0 40 5.37258 40 12V28C40 34.6274 34.6274 40 28 40H12C5.37258 40 0 34.6274 0 28V12Z" fill="#374151"/>
<path d="M24.1667 11.6667H15.8333C13.5322 11.6667 11.6667 13.5322 11.6667 15.8334V24.1667C11.6667 26.4679 13.5322 28.3334 15.8333 28.3334H24.1667C26.4679 28.3334 28.3333 26.4679 28.3333 24.1667V15.8334C28.3333 13.5322 26.4679 11.6667 24.1667 11.6667Z" stroke="white" stroke-width="1.66667" stroke-linecap="round" stroke-linejoin="round"/>
<path d="M23.3333 19.475C23.4362 20.1685 23.3177 20.8769 22.9948 21.4992C22.6719 22.1215 22.161 22.6262 21.5347 22.9414C20.9084 23.2566 20.1987 23.3663 19.5065 23.255C18.8143 23.1436 18.1748 22.8167 17.679 22.321C17.1833 21.8252 16.8564 21.1857 16.7451 20.4935C16.6337 19.8013 16.7434 19.0916 17.0586 18.4653C17.3738 17.8391 17.8785 17.3281 18.5008 17.0052C19.1231 16.6823 19.8315 16.5638 20.525 16.6667C21.2324 16.7716 21.8874 17.1012 22.3931 17.6069C22.8988 18.1126 23.2284 18.7676 23.3333 19.475Z" stroke="white" stroke-width="1.66667" stroke-linecap="round" stroke-linejoin="round"/>
<path d="M24.5833 15.4167H24.5917" stroke="white" stroke-width="1.66667" stroke-linecap="round" stroke-linejoin="round"/>
</svg>
