<svg width="28" height="28" viewBox="0 0 28 28" fill="none" xmlns="http://www.w3.org/2000/svg">
<path d="M18.0565 15.0383L19.824 24.9853C19.8438 25.1025 19.8273 25.2228 19.7768 25.3304C19.7264 25.4379 19.6443 25.5275 19.5415 25.5871C19.4388 25.6467 19.3203 25.6735 19.2019 25.664C19.0835 25.6544 18.9708 25.609 18.879 25.5337L14.7023 22.3988C14.5007 22.2482 14.2557 22.1668 14.004 22.1668C13.7524 22.1668 13.5074 22.2482 13.3058 22.3988L9.12212 25.5325C9.03033 25.6077 8.91779 25.6531 8.79953 25.6626C8.68127 25.6722 8.56291 25.6455 8.46023 25.586C8.35755 25.5266 8.27544 25.4372 8.22486 25.3299C8.17428 25.2226 8.15762 25.1024 8.17712 24.9853L9.94345 15.0383" stroke="#009E60" stroke-width="2.33333" stroke-linecap="round" stroke-linejoin="round"/>
<path d="M14 16.3334C17.866 16.3334 21 13.1994 21 9.33337C21 5.46738 17.866 2.33337 14 2.33337C10.134 2.33337 7 5.46738 7 9.33337C7 13.1994 10.134 16.3334 14 16.3334Z" stroke="#009E60" stroke-width="2.33333" stroke-linecap="round" stroke-linejoin="round"/>
</svg>
