<svg width="40" height="40" viewBox="0 0 40 40" fill="none" xmlns="http://www.w3.org/2000/svg">
<path d="M0 12C0 5.37258 5.37258 0 12 0H28C34.6274 0 40 5.37258 40 12V28C40 34.6274 34.6274 40 28 40H12C5.37258 40 0 34.6274 0 28V12Z" fill="#374151"/>
<path d="M25 11.6667H22.5C21.3949 11.6667 20.3351 12.1057 19.5537 12.8871C18.7723 13.6685 18.3333 14.7283 18.3333 15.8334V18.3334H15.8333V21.6667H18.3333V28.3334H21.6667V21.6667H24.1667L25 18.3334H21.6667V15.8334C21.6667 15.6124 21.7545 15.4004 21.9107 15.2442C22.067 15.0879 22.279 15.0001 22.5 15.0001H25V11.6667Z" stroke="white" stroke-width="1.66667" stroke-linecap="round" stroke-linejoin="round"/>
</svg>
