<svg width="14" height="14" viewBox="0 0 14 14" fill="none" xmlns="http://www.w3.org/2000/svg">
<path d="M11.0833 6.41666H2.91667C2.27233 6.41666 1.75 6.93899 1.75 7.58332V11.6667C1.75 12.311 2.27233 12.8333 2.91667 12.8333H11.0833C11.7277 12.8333 12.25 12.311 12.25 11.6667V7.58332C12.25 6.93899 11.7277 6.41666 11.0833 6.41666Z" stroke="#6B7280" stroke-width="1.16667" stroke-linecap="round" stroke-linejoin="round"/>
<path d="M4.08334 6.41666V4.08332C4.08334 3.30977 4.39063 2.56791 4.93762 2.02093C5.4846 1.47395 6.22646 1.16666 7.00001 1.16666C7.77356 1.16666 8.51542 1.47395 9.0624 2.02093C9.60939 2.56791 9.91668 3.30977 9.91668 4.08332V6.41666" stroke="#6B7280" stroke-width="1.16667" stroke-linecap="round" stroke-linejoin="round"/>
</svg>
