<svg width="16" height="16" viewBox="0 0 16 16" fill="none" xmlns="http://www.w3.org/2000/svg">
<g clip-path="url(#clip0_1_75)">
<path d="M10.6666 14V12.6667C10.6666 11.9594 10.3857 11.2811 9.8856 10.781C9.3855 10.281 8.70722 10 7.99998 10H3.99998C3.29274 10 2.61446 10.281 2.11436 10.781C1.61426 11.2811 1.33331 11.9594 1.33331 12.6667V14" stroke="#009E60" stroke-width="1.33333" stroke-linecap="round" stroke-linejoin="round"/>
<path d="M5.99998 7.33333C7.47274 7.33333 8.66665 6.13943 8.66665 4.66667C8.66665 3.19391 7.47274 2 5.99998 2C4.52722 2 3.33331 3.19391 3.33331 4.66667C3.33331 6.13943 4.52722 7.33333 5.99998 7.33333Z" stroke="#009E60" stroke-width="1.33333" stroke-linecap="round" stroke-linejoin="round"/>
<path d="M12.6667 5.33331V9.33331" stroke="#009E60" stroke-width="1.33333" stroke-linecap="round" stroke-linejoin="round"/>
<path d="M14.6667 7.33331H10.6667" stroke="#009E60" stroke-width="1.33333" stroke-linecap="round" stroke-linejoin="round"/>
</g>
<defs>
<clipPath id="clip0_1_75">
<rect width="16" height="16" fill="white"/>
</clipPath>
</defs>
</svg>
