<svg width="40" height="40" viewBox="0 0 40 40" fill="none" xmlns="http://www.w3.org/2000/svg">
<path d="M0 12C0 5.37258 5.37258 0 12 0H28C34.6274 0 40 5.37258 40 12V28C40 34.6274 34.6274 40 28 40H12C5.37258 40 0 34.6274 0 28V12Z" fill="#374151"/>
<path d="M28.3333 13.3334C28.3333 13.3334 27.75 15.0834 26.6667 16.1668C28 24.5001 18.8333 30.5834 11.6667 25.8334C13.5 25.9168 15.3333 25.3334 16.6667 24.1668C12.5 22.9168 10.4167 18.0001 12.5 14.1668C14.3333 16.3334 17.1667 17.5834 20 17.5001C19.25 14.0001 23.3333 12.0001 25.8333 14.3334C26.75 14.3334 28.3333 13.3334 28.3333 13.3334Z" stroke="white" stroke-width="1.66667" stroke-linecap="round" stroke-linejoin="round"/>
</svg>
