<svg width="40" height="40" viewBox="0 0 40 40" fill="none" xmlns="http://www.w3.org/2000/svg">
<g clip-path="url(#clip0_0_9)">
<path d="M32.5 0H7.5C3.35786 0 0 3.35786 0 7.5V32.5C0 36.6421 3.35786 40 7.5 40H32.5C36.6421 40 40 36.6421 40 32.5V7.5C40 3.35786 36.6421 0 32.5 0Z" fill="#009E60"/>
<path d="M22.2775 15.0699C22.21 14.3895 21.9205 13.861 21.4088 13.4843C20.8971 13.1076 20.2027 12.9192 19.3256 12.9192C18.7296 12.9192 18.2264 13.0036 17.8159 13.1722C17.4055 13.3353 17.0906 13.563 16.8713 13.8554C16.6577 14.1478 16.5508 14.4795 16.5508 14.8506C16.5396 15.1598 16.6043 15.4297 16.7448 15.6602C16.891 15.8908 17.0906 16.0904 17.3436 16.2591C17.5966 16.4221 17.889 16.5655 18.2208 16.6892C18.5525 16.8073 18.9067 16.9085 19.2834 16.9928L20.8353 17.3639C21.5887 17.5326 22.2803 17.7575 22.91 18.0386C23.5398 18.3197 24.0852 18.6655 24.5462 19.076C25.0073 19.4864 25.3643 19.97 25.6173 20.5266C25.876 21.0833 26.0081 21.7214 26.0137 22.4411C26.0081 23.4982 25.7382 24.4147 25.2041 25.1906C24.6755 25.9609 23.9109 26.5597 22.91 26.987C21.9148 27.4087 20.7144 27.6196 19.3087 27.6196C17.9143 27.6196 16.6998 27.4059 15.6653 26.9786C14.6363 26.5513 13.8323 25.9187 13.2532 25.081C12.6797 24.2376 12.3788 23.1946 12.3507 21.952H15.8846C15.9239 22.5311 16.0898 23.0146 16.3822 23.4026C16.6802 23.7849 17.0766 24.0745 17.5713 24.2713C18.0718 24.4625 18.6368 24.5581 19.2666 24.5581C19.8851 24.5581 20.422 24.4681 20.8775 24.2882C21.3385 24.1083 21.6955 23.858 21.9486 23.5376C22.2016 23.2171 22.3281 22.8488 22.3281 22.4327C22.3281 22.0447 22.2128 21.7186 21.9823 21.4544C21.7574 21.1901 21.4257 20.9652 20.9871 20.7797C20.5542 20.5941 20.0228 20.4254 19.3931 20.2736L17.5123 19.8013C16.056 19.4471 14.9062 18.8933 14.0628 18.1398C13.2194 17.3864 12.8005 16.3715 12.8062 15.0952C12.8005 14.0494 13.0789 13.1357 13.6411 12.3541C14.209 11.5726 14.9877 10.9625 15.9773 10.524C16.9669 10.0854 18.0914 9.86612 19.3509 9.86612C20.6329 9.86612 21.7518 10.0854 22.7076 10.524C23.6691 10.9625 24.4169 11.5726 24.951 12.3541C25.4852 13.1357 25.7607 14.0409 25.7776 15.0699H22.2775Z" fill="white"/>
</g>
<defs>
<clipPath id="clip0_0_9">
<rect width="40" height="40" fill="white"/>
</clipPath>
</defs>
</svg>
